<svg width="200" height="100" viewBox="0 0 200 100" fill="none" xmlns="http://www.w3.org/2000/svg">
    <g clip-path="url(#clip0)">
        <path d="M13.8391 44.385C11.3251 44.385 9.00638 43.799 6.88293 42.628C4.78388 41.432 3.11196 39.7966 1.86718 37.722C0.622392 35.623 0 33.2798 0 30.6926C0 28.1054 0.622392 25.7745 1.86718 23.6999C3.11196 21.6008 4.78388 19.9655 6.88293 18.794C9.00638 17.598 11.3251 17 13.8391 17C15.8893 17 17.7565 17.3661 19.4406 18.0983C21.1491 18.8062 22.6136 19.8191 23.834 21.1371L20.4291 24.4687C19.5504 23.5412 18.5741 22.8456 17.5002 22.3819C16.4507 21.9181 15.2181 21.6862 13.8025 21.6862C12.1916 21.6862 10.7149 22.0646 9.3725 22.8212C8.03008 23.5534 6.95615 24.6152 6.1507 26.0064C5.36966 27.3732 4.97914 28.9353 4.97914 30.6926C4.97914 32.45 5.38186 34.0243 6.18731 35.4155C6.99276 36.7823 8.06669 37.844 9.40911 38.6007C10.7759 39.3329 12.2648 39.699 13.8757 39.699C16.3164 39.699 18.3179 38.979 19.8799 37.539C20.3681 37.0996 20.7952 36.5382 21.1613 35.8548C21.5275 35.1714 21.7959 34.427 21.9668 33.6215H13.7292V29.4112H26.5798C26.7507 30.0947 26.8361 30.8635 26.8361 31.7178C26.8361 33.4507 26.5676 35.0616 26.0307 36.5504C25.5181 38.0393 24.7248 39.3451 23.6509 40.4679C22.4794 41.737 21.0637 42.713 19.404 43.397C17.7443 44.056 15.8893 44.385 13.8391 44.385Z" fill="#4284F3"/>
        <path d="M39.6606 44.385C37.7324 44.385 36.0117 43.958 34.4984 43.104C32.9852 42.225 31.8014 41.0414 30.9472 39.5526C30.1173 38.0393 29.7024 36.343 29.7024 34.4636C29.7024 32.6086 30.1173 30.9245 30.9472 29.4112C31.8014 27.898 32.9852 26.7142 34.4984 25.8599C36.0117 24.9813 37.7324 24.5419 39.6606 24.5419C41.5644 24.5419 43.273 24.9813 44.7862 25.8599C46.2995 26.7142 47.4711 27.898 48.3009 29.4112C49.1552 30.9245 49.5823 32.6086 49.5823 34.4636C49.5823 36.343 49.1552 38.0393 48.3009 39.5526C47.4711 41.0414 46.2995 42.225 44.7862 43.104C43.273 43.958 41.5644 44.385 39.6606 44.385ZM39.6606 39.9553C40.5881 39.9553 41.4424 39.7356 42.2234 39.2963C43.0045 38.857 43.6269 38.2224 44.0906 37.3925C44.5544 36.5626 44.7862 35.5863 44.7862 34.4636C44.7862 33.3653 44.5544 32.4012 44.0906 31.5713C43.6269 30.7414 43.0045 30.1069 42.2234 29.6675C41.4424 29.2282 40.5881 29.0085 39.6606 29.0085C38.7332 29.0085 37.8789 29.2282 37.0979 29.6675C36.3168 30.1069 35.6822 30.7414 35.1941 31.5713C34.7303 32.4012 34.4984 33.3653 34.4984 34.4636C34.4984 35.5619 34.7303 36.5382 35.1941 37.3925C35.6822 38.2224 36.3168 38.857 37.0979 39.2963C37.8789 39.7356 38.7332 39.9553 39.6606 39.9553Z" fill="#EB4335"/>
        <path d="M62.1852 44.385C60.257 44.385 58.5363 43.958 57.023 43.104C55.5097 42.225 54.326 41.0414 53.4717 39.5526C52.6418 38.0393 52.2269 36.343 52.2269 34.4636C52.2269 32.6086 52.6418 30.9245 53.4717 29.4112C54.326 27.898 55.5097 26.7142 57.023 25.8599C58.5363 24.9813 60.257 24.5419 62.1852 24.5419C64.089 24.5419 65.7975 24.9813 67.3108 25.8599C68.824 26.7142 69.9956 27.898 70.8255 29.4112C71.6797 30.9245 72.1069 32.6086 72.1069 34.4636C72.1069 36.343 71.6797 38.0393 70.8255 39.5526C69.9956 41.0414 68.824 42.225 67.3108 43.104C65.7975 43.958 64.089 44.385 62.1852 44.385ZM62.1852 39.9553C63.1127 39.9553 63.9669 39.7356 64.748 39.2963C65.529 38.857 66.1514 38.2224 66.6152 37.3925C67.0789 36.5626 67.3108 35.5863 67.3108 34.4636C67.3108 33.3653 67.0789 32.4012 66.6152 31.5713C66.1514 30.7414 65.529 30.1069 64.748 29.6675C63.9669 29.2282 63.1127 29.0085 62.1852 29.0085C61.2577 29.0085 60.4034 29.2282 59.6224 29.6675C58.8414 30.1069 58.2068 30.7414 57.7186 31.5713C57.2549 32.4012 57.023 33.3653 57.023 34.4636C57.023 35.5619 57.2549 36.5382 57.7186 37.3925C58.2068 38.2224 58.8414 38.857 59.6224 39.2963C60.4034 39.7356 61.2577 39.9553 62.1852 39.9553Z" fill="#FABC05"/>
        <path d="M84.3802 52.293C82.0127 52.293 80.0479 51.756 78.4858 50.682C76.9237 49.633 75.8742 48.364 75.3372 46.875L79.8404 45.044C80.231 45.972 80.8289 46.704 81.6344 47.241C82.4398 47.778 83.3551 48.046 84.3802 48.046C85.8935 48.046 87.0895 47.583 87.9681 46.655C88.8712 45.728 89.3228 44.41 89.3228 42.701V41.2367H89.0299C88.4441 42.067 87.6753 42.701 86.7234 43.14C85.7715 43.58 84.6853 43.799 83.465 43.799C81.9273 43.799 80.4872 43.409 79.1448 42.628C77.8268 41.8225 76.7651 40.6997 75.9596 39.2597C75.1542 37.7952 74.7515 36.0989 74.7515 34.1707C74.7515 32.2425 75.1542 30.5584 75.9596 29.1183C76.7651 27.6539 77.8268 26.5311 79.1448 25.7501C80.4872 24.9447 81.9273 24.5419 83.465 24.5419C84.6853 24.5419 85.7715 24.7616 86.7234 25.2009C87.6753 25.6403 88.4441 26.2749 89.0299 27.1047H89.3228V25.1277H93.9358V42.518C93.9358 44.52 93.5453 46.252 92.7642 47.717C91.9832 49.181 90.8726 50.304 89.4326 51.085C87.9925 51.891 86.3084 52.293 84.3802 52.293ZM84.4535 39.4427C85.7959 39.4427 86.943 38.979 87.8949 38.0515C88.8468 37.0996 89.3228 35.806 89.3228 34.1707C89.3228 32.4866 88.8468 31.193 87.8949 30.2899C86.9674 29.3624 85.8203 28.8987 84.4535 28.8987C83.0866 28.8987 81.9273 29.3624 80.9754 30.2899C80.0235 31.2174 79.5475 32.511 79.5475 34.1707C79.5475 35.8304 80.0235 37.124 80.9754 38.0515C81.9273 38.979 83.0866 39.4427 84.4535 39.4427Z" fill="#4284F3"/>
        <path d="M98.6229 17.5858H103.419V43.799H98.6229V17.5858Z" fill="#33A853"/>
        <path d="M116.705 44.385C114.85 44.385 113.178 43.958 111.689 43.104C110.2 42.25 109.028 41.078 108.174 39.5892C107.344 38.0759 106.929 36.3796 106.929 34.5002C106.929 32.7185 107.344 31.071 108.174 29.5577C109.004 28.02 110.151 26.7996 111.616 25.8966C113.08 24.9935 114.715 24.5419 116.522 24.5419C118.45 24.5419 120.109 24.9569 121.501 25.7867C122.892 26.6166 123.941 27.7515 124.649 29.1916C125.381 30.6316 125.748 32.2303 125.748 33.9877C125.748 34.549 125.711 35.086 125.638 35.5986H111.616C111.86 37.0874 112.445 38.2224 113.373 39.0034C114.325 39.76 115.46 40.1384 116.778 40.1384C117.876 40.1384 118.816 39.9065 119.597 39.4427C120.402 38.9546 121.037 38.3078 121.501 37.5023L125.381 39.4061C123.478 42.726 120.585 44.385 116.705 44.385ZM121.135 32.1937C121.086 31.6079 120.866 31.0343 120.476 30.473C120.109 29.8872 119.585 29.4112 118.901 29.0451C118.242 28.6546 117.461 28.4593 116.558 28.4593C115.411 28.4593 114.422 28.801 113.593 29.4845C112.787 30.1435 112.201 31.0465 111.835 32.1937H121.135Z" fill="#EB4335"/>
        <path d="M51.446 90.385C49.273 90.385 47.321 89.751 45.588 88.481C43.855 87.2123 42.659 85.4305 42 83.1362L45.881 81.5619C46.271 83.002 46.955 84.1858 47.931 85.1132C48.932 86.0163 50.128 86.4679 51.519 86.4679C52.812 86.4679 53.911 86.1384 54.814 85.4794C55.717 84.7959 56.168 83.8685 56.168 82.6969C56.168 81.623 55.766 80.7443 54.96 80.0609C54.179 79.3531 52.8 78.6452 50.823 77.9374L49.176 77.3516C47.418 76.7414 45.942 75.8628 44.746 74.7156C43.55 73.5685 42.952 72.0552 42.952 70.1758C42.952 68.8822 43.306 67.6862 44.013 66.5879C44.721 65.4896 45.698 64.6231 46.942 63.9885C48.212 63.3295 49.639 63 51.226 63C53.52 63 55.351 63.5614 56.718 64.6841C58.084 65.7825 59 67.0272 59.463 68.4185L55.766 69.9928C55.497 69.1629 54.985 68.4307 54.228 67.7961C53.471 67.1615 52.495 66.8442 51.299 66.8442C50.103 66.8442 49.09 67.1493 48.26 67.7595C47.455 68.3697 47.052 69.1507 47.052 70.1026C47.052 71.0057 47.418 71.7501 48.15 72.3359C48.883 72.9217 50.03 73.483 51.592 74.02L53.239 74.5692C55.485 75.3502 57.218 76.3753 58.438 77.6445C59.683 78.8893 60.305 80.5612 60.305 82.6603C60.305 84.3688 59.866 85.8089 58.987 86.9804C58.109 88.128 56.986 88.982 55.619 89.543C54.277 90.105 52.886 90.385 51.446 90.385Z" fill="#757575"/>
        <path d="M64.338 63.5858H68.3649V70.725L68.1819 73.5807H68.3649C68.9019 72.702 69.6959 71.982 70.7449 71.4206C71.8189 70.8348 72.966 70.5419 74.187 70.5419C76.456 70.5419 78.1889 71.2131 79.3849 72.5556C80.5809 73.8736 81.179 75.6797 81.179 77.974V89.799H77.1519V78.5232C77.1519 77.1076 76.774 76.0458 76.017 75.338C75.285 74.6302 74.321 74.2763 73.125 74.2763C72.222 74.2763 71.404 74.5326 70.672 75.0451C69.964 75.5577 69.4029 76.2411 68.9879 77.0954C68.5729 77.9252 68.3649 78.8161 68.3649 79.768V89.799H64.338V63.5858Z" fill="#757575"/>
        <path d="M94.5039 90.385C92.6249 90.385 90.9409 89.958 89.4519 89.104C87.9629 88.225 86.8039 87.0292 85.9739 85.516C85.1439 84.0027 84.7289 82.3186 84.7289 80.4636C84.7289 78.6086 85.1439 76.9245 85.9739 75.4112C86.8039 73.898 87.9629 72.7142 89.4519 71.8599C90.9409 70.9813 92.6249 70.5419 94.5039 70.5419C96.3839 70.5419 98.0679 70.9813 99.5569 71.8599C101.046 72.7386 102.205 73.9346 103.035 75.4478C103.865 76.9611 104.28 78.633 104.28 80.4636C104.28 82.3186 103.865 84.0027 103.035 85.516C102.205 87.0292 101.046 88.225 99.5569 89.104C98.0679 89.958 96.3839 90.385 94.5039 90.385ZM94.5039 86.6875C95.5299 86.6875 96.4809 86.4435 97.3599 85.9553C98.2389 85.4427 98.9339 84.7227 99.4469 83.7952C99.9839 82.8433 100.252 81.7328 100.252 80.4636C100.252 79.1944 99.9839 78.0961 99.4469 77.1686C98.9339 76.2411 98.2389 75.5333 97.3599 75.0451C96.4809 74.5326 95.5299 74.2763 94.5039 74.2763C93.4789 74.2763 92.5269 74.5326 91.6489 75.0451C90.7699 75.5333 90.0619 76.2411 89.5249 77.1686C89.0129 78.0961 88.7559 79.1944 88.7559 80.4636C88.7559 81.7328 89.0129 82.8433 89.5249 83.7952C90.0619 84.7227 90.7699 85.4427 91.6489 85.9553C92.5269 86.4435 93.4789 86.6875 94.5039 86.6875Z" fill="#757575"/>
        <path d="M107.668 71.1277H111.512V73.5807H111.695C112.232 72.7264 113.025 72.0064 114.075 71.4206C115.124 70.8348 116.308 70.5419 117.626 70.5419C119.31 70.5419 120.835 70.9691 122.202 71.8233C123.569 72.6776 124.643 73.8614 125.424 75.3746C126.23 76.8635 126.632 78.5598 126.632 80.4636C126.632 82.3674 126.23 84.0759 125.424 85.5892C124.643 87.078 123.569 88.25 122.202 89.104C120.835 89.958 119.31 90.385 117.626 90.385C116.308 90.385 115.124 90.092 114.075 89.507C113.025 88.921 112.232 88.213 111.695 87.3831H111.512L111.695 89.983V97.708H107.668V71.1277ZM117.04 86.6875C118.016 86.6875 118.932 86.4312 119.786 85.9187C120.64 85.4061 121.324 84.6739 121.836 83.722C122.349 82.7701 122.605 81.684 122.605 80.4636C122.605 79.2432 122.349 78.1693 121.836 77.2418C121.324 76.2899 120.64 75.5577 119.786 75.0451C118.932 74.5326 118.016 74.2763 117.04 74.2763C116.064 74.2763 115.149 74.5326 114.294 75.0451C113.464 75.5577 112.793 76.2899 112.281 77.2418C111.768 78.1693 111.512 79.2432 111.512 80.4636C111.512 81.684 111.768 82.7701 112.281 83.722C112.793 84.6739 113.464 85.4061 114.294 85.9187C115.149 86.4312 116.064 86.6875 117.04 86.6875Z" fill="#757575"/>
        <path d="M129.799 71.1277H133.643V73.5807H133.826C134.363 72.7264 135.156 72.0064 136.206 71.4206C137.255 70.8348 138.439 70.5419 139.757 70.5419C141.441 70.5419 142.967 70.9691 144.334 71.8233C145.7 72.6776 146.774 73.8614 147.555 75.3746C148.361 76.8635 148.764 78.5598 148.764 80.4636C148.764 82.3674 148.361 84.0759 147.555 85.5892C146.774 87.078 145.7 88.25 144.334 89.104C142.967 89.958 141.441 90.385 139.757 90.385C138.439 90.385 137.255 90.092 136.206 89.507C135.156 88.921 134.363 88.213 133.826 87.3831H133.643L133.826 89.983V97.708H129.799V71.1277ZM139.171 86.6875C140.148 86.6875 141.063 86.4312 141.917 85.9187C142.772 85.4061 143.455 84.6739 143.967 83.722C144.48 82.7701 144.736 81.684 144.736 80.4636C144.736 79.2432 144.48 78.1693 143.967 77.2418C143.455 76.2899 142.772 75.5577 141.917 75.0451C141.063 74.5326 140.148 74.2763 139.171 74.2763C138.195 74.2763 137.28 74.5326 136.426 75.0451C135.596 75.5577 134.924 76.2899 134.412 77.2418C133.899 78.1693 133.643 79.2432 133.643 80.4636C133.643 81.684 133.899 82.7701 134.412 83.722C134.924 84.6739 135.596 85.4061 136.426 85.9187C137.28 86.4312 138.195 86.6875 139.171 86.6875Z" fill="#757575"/>
        <path d="M154.562 68.4185C153.805 68.4185 153.158 68.1622 152.621 67.6496C152.109 67.1127 151.853 66.4659 151.853 65.7092C151.853 64.9526 152.109 64.318 152.621 63.8054C153.158 63.2685 153.805 63 154.562 63C155.319 63 155.953 63.2685 156.466 63.8054C157.003 64.318 157.271 64.9526 157.271 65.7092C157.271 66.4659 157.003 67.1127 156.466 67.6496C155.953 68.1622 155.319 68.4185 154.562 68.4185ZM152.548 71.1277H156.575V89.799H152.548V71.1277Z" fill="#757575"/>
        <path d="M161.587 71.1277H165.431V73.5807H165.614C166.151 72.702 166.944 71.982 167.994 71.4206C169.068 70.8348 170.203 70.5419 171.399 70.5419C173.669 70.5419 175.389 71.2131 176.561 72.5556C177.757 73.8736 178.355 75.6797 178.355 77.974V89.799H174.328V78.5232C174.328 77.0587 173.962 75.9848 173.229 75.3014C172.522 74.618 171.533 74.2763 170.264 74.2763C169.361 74.2763 168.555 74.5326 167.848 75.0451C167.14 75.5333 166.591 76.1923 166.2 77.0221C165.809 77.852 165.614 78.7429 165.614 79.6948V89.799H161.587V71.1277Z" fill="#757575"/>
        <path d="M191.138 98.293C188.843 98.293 186.94 97.769 185.426 96.719C183.938 95.67 182.937 94.425 182.424 92.985L186.195 91.41C186.586 92.387 187.208 93.168 188.062 93.754C188.941 94.364 189.966 94.669 191.138 94.669C192.846 94.669 194.176 94.156 195.128 93.131C196.105 92.13 196.593 90.715 196.593 88.884V87.1635H196.373C195.763 88.042 194.945 88.738 193.92 89.25C192.919 89.738 191.76 89.983 190.442 89.983C188.88 89.983 187.428 89.58 186.085 88.774C184.743 87.9689 183.669 86.834 182.864 85.3695C182.083 83.8807 181.692 82.1843 181.692 80.2805C181.692 78.3768 182.083 76.6926 182.864 75.2282C183.669 73.7393 184.743 72.5922 186.085 71.7867C187.428 70.9569 188.88 70.5419 190.442 70.5419C191.736 70.5419 192.895 70.7982 193.92 71.3108C194.945 71.8233 195.763 72.5189 196.373 73.3976H196.593V71.1277H200.437V88.774C200.437 90.8 200.046 92.521 199.265 93.937C198.484 95.377 197.386 96.463 195.97 97.195C194.579 97.927 192.968 98.293 191.138 98.293ZM191.174 86.3214C192.151 86.3214 193.054 86.0895 193.884 85.6258C194.713 85.1376 195.372 84.442 195.861 83.539C196.349 82.6115 196.593 81.5253 196.593 80.2805C196.593 78.3768 196.068 76.9001 195.019 75.8506C193.993 74.7766 192.712 74.2397 191.174 74.2397C190.174 74.2397 189.258 74.4838 188.428 74.9719C187.599 75.4356 186.94 76.1191 186.451 77.0221C185.963 77.9252 185.719 79.0114 185.719 80.2805C185.719 81.5497 185.963 82.6359 186.451 83.539C186.94 84.442 187.599 85.1376 188.428 85.6258C189.258 86.0895 190.174 86.3214 191.174 86.3214Z" fill="#757575"/>
        <path fill-rule="evenodd" clip-rule="evenodd" d="M188.969 14.9895C191.029 14.9895 192.699 13.3192 192.699 11.2589C192.699 9.19871 191.029 7.52843 188.969 7.52843C186.908 7.52843 185.238 9.19871 185.238 11.2589C185.238 13.3192 186.908 14.9895 188.969 14.9895ZM162.541 13.8507L173.985 2.40643C174.858 1.53341 176.07 1.00003 177.404 1.00003H194.378C195.015 0.997803 195.647 1.12172 196.236 1.36465C196.826 1.60758 197.361 1.96472 197.812 2.41549C198.263 2.86627 198.62 3.40177 198.863 3.99116C199.106 4.58055 199.23 5.21218 199.228 5.84968V22.8236C199.228 24.1573 198.694 25.3697 197.797 26.2426L186.37 37.6804L162.541 13.8507Z" fill="#4285F4"/>
        <path fill-rule="evenodd" clip-rule="evenodd" d="M186.37 37.6803L172.267 51.7967C171.37 52.6696 170.157 53.2274 168.824 53.2274C167.49 53.2274 166.278 52.6696 165.405 51.7967L148.431 34.8228C147.533 33.9498 147 32.7375 147 31.4038C147 30.0458 147.558 28.8334 148.431 27.9605L162.541 13.8506L186.37 37.6803Z" fill="#34A853"/>
        <path fill-rule="evenodd" clip-rule="evenodd" d="M156.668 43.0601L148.431 34.8231C147.533 33.9504 147 32.7378 147 31.4042C147 30.0463 147.558 28.8339 148.431 27.961L162.541 13.8511L174.209 25.5194L156.668 43.0601Z" fill="#FBBC05"/>
        <path fill-rule="evenodd" clip-rule="evenodd" d="M197.553 2.1747C196.671 1.41315 195.543 0.995978 194.378 1.00003H177.404C176.07 1.00003 174.858 1.53342 173.985 2.40643L162.541 13.8507L174.209 25.519L186.093 13.635C185.539 12.967 185.237 12.1264 185.238 11.2589C185.238 9.19871 186.908 7.52843 188.969 7.52843C189.836 7.52708 190.677 7.82936 191.345 8.38287L197.553 2.1747Z" fill="#EA4335"/>
        <path d="M174.202 34.4194C178.387 34.4194 181.779 31.0268 181.779 26.8418C181.779 22.6568 178.387 19.2642 174.202 19.2642C170.017 19.2642 166.624 22.6568 166.624 26.8418C166.624 31.0268 170.017 34.4194 174.202 34.4194Z" fill="#4285F4"/>
        <path fill-rule="evenodd" clip-rule="evenodd" d="M184.526 24.6129H174.448V28.9369H180.249C179.708 31.684 177.447 33.2609 174.448 33.2609C170.908 33.2609 168.057 30.3104 168.057 26.6477C168.057 22.985 170.908 20.0345 174.448 20.0345C175.972 20.0345 177.348 20.5941 178.43 21.5098L181.576 18.2539C179.659 16.5244 177.201 15.4561 174.448 15.4561C168.45 15.4561 163.632 20.4415 163.632 26.6477C163.632 32.8539 168.45 37.8394 174.448 37.8394C179.856 37.8394 184.772 33.7696 184.772 26.6477C184.772 25.9864 184.673 25.2742 184.526 24.6129Z" fill="white"/>
    </g>
    <defs>
        <clipPath id="clip0">
            <rect width="200" height="100" fill="white"/>
        </clipPath>
    </defs>
</svg>
